<svg xmlns="http://www.w3.org/2000/svg" viewBox="0 0 1280 120" role="img" aria-label="Cryptonly">
  <rect width="1280" height="120" fill="#000000"/>
  <g transform="translate(519.394, 41.25)">
    <g transform="scale(2.5)">
      <path d="M5.86111 0.711207C6.8222 -0.237072 8.38045 -0.237065 9.34154 0.711207L9.52458 0.891804C9.65166 1.01719 9.65166 1.22049 9.52458 1.34587L4.1574 6.64151C3.67688 7.11564 3.67688 7.88436 4.1574 8.35849L9.52458 13.6541C9.65166 13.7795 9.65166 13.9828 9.52458 14.1082L9.34154 14.2888C8.38045 15.2371 6.8222 15.2371 5.86111 14.2888L0.720807 9.21702C-0.24027 8.26874 -0.240269 6.73126 0.720807 5.78298L5.86111 0.711207Z" fill="#ffffff"/>
      <path d="M10.0165 2.11264C10.2446 1.88766 10.6142 1.88766 10.8422 2.11264L15.8686 7.07203C16.0967 7.297 16.0967 7.66176 15.8686 7.88673L10.8422 12.8461C10.6142 13.0711 10.2446 13.0711 10.0165 12.8461L4.99014 7.88673C4.76212 7.66176 4.76212 7.297 4.99014 7.07203L10.0165 2.11264Z" fill="#ffffff"/>
    </g>
    <g transform="translate(45.64, 5.91) scale(2.5)">
      <path d="M9.54736 7.38685C9.1277 8.30909 8.5288 9.02092 7.75068 9.52233C6.98129 10.0237 6.09387 10.2744 5.08843 10.2744C4.38025 10.2744 3.71578 10.1401 3.09502 9.87152C2.47427 9.60291 1.93221 9.24028 1.46883 8.78364C1.01419 8.31805 0.655726 7.77187 0.393436 7.1451C0.131146 6.51834 0 5.84681 0 5.13051C0 4.41421 0.126774 3.74715 0.380321 3.12934C0.642611 2.50258 0.996703 1.9564 1.4426 1.4908C1.89723 1.02521 2.42618 0.662579 3.02945 0.402919C3.64146 0.134306 4.29719 0 4.99663 0C5.50372 0 5.98896 0.067153 6.45234 0.201459C6.91572 0.335766 7.33975 0.528272 7.72445 0.778978C8.11788 1.02968 8.4676 1.33859 8.77361 1.70569C9.07961 2.06384 9.33316 2.47124 9.53425 2.92788H7.84248C7.49276 2.42647 7.09058 2.06384 6.63594 1.84C6.19005 1.6072 5.65672 1.4908 5.03597 1.4908C4.53762 1.4908 4.07424 1.58482 3.64583 1.77285C3.21742 1.95192 2.84585 2.20263 2.5311 2.52496C2.2251 2.8473 1.98029 3.23231 1.79669 3.68C1.62183 4.11873 1.5344 4.59776 1.5344 5.11708C1.5344 5.62744 1.6262 6.10647 1.8098 6.55416C1.99341 6.99289 2.24695 7.3779 2.57044 7.70919C2.89394 8.04048 3.26988 8.30462 3.69829 8.5016C4.1267 8.68963 4.58134 8.78364 5.0622 8.78364C5.60427 8.78364 6.08513 8.6762 6.5048 8.46131C6.9332 8.24642 7.36161 7.88827 7.79002 7.38685H9.54736Z" fill="#ffffff"/>
      <path d="M11.0825 0.174599H13.7447C16.2977 0.174599 17.5742 1.23562 17.5742 3.35766C17.5742 5.03201 16.6955 6.05274 14.9381 6.41985L17.5873 10.0998H15.7119L12.6038 5.56029V10.0998H11.0825V0.174599ZM13.6005 5.14394C14.4398 5.14394 15.0562 5.00515 15.4496 4.72759C15.843 4.44107 16.0398 3.99338 16.0398 3.38452C16.0398 2.76671 15.8474 2.3235 15.4627 2.05489C15.078 1.78628 14.4529 1.65197 13.5873 1.65197H12.6038V5.14394H13.6005Z" fill="#ffffff"/>
      <path d="M21.4542 6.55416L18.2018 0.174599H19.8542L22.2148 5.07678L24.5755 0.174599H26.2279L22.9755 6.55416V10.0998H21.4542V6.55416Z" fill="#ffffff"/>
      <path d="M27.3224 0.174599H29.8142C30.1377 0.174599 30.4262 0.183552 30.6798 0.201459C30.9333 0.219367 31.1606 0.250706 31.3617 0.295474C31.5628 0.331289 31.7464 0.380535 31.9125 0.443211C32.0786 0.505888 32.2316 0.586472 32.3715 0.684963C32.765 0.935668 33.0622 1.28039 33.2633 1.71912C33.4731 2.15786 33.5781 2.65927 33.5781 3.22335C33.5781 3.78744 33.4688 4.29333 33.2502 4.74102C33.0404 5.18871 32.7431 5.53343 32.3584 5.77518C32.2185 5.86471 32.0699 5.94082 31.9125 6.0035C31.7551 6.05722 31.5759 6.10199 31.3748 6.1378C31.1825 6.17362 30.9595 6.20048 30.706 6.21839C30.4612 6.2363 30.1727 6.24525 29.8404 6.24525H28.8437V10.0998H27.3224V0.174599ZM29.788 4.76788C30.1202 4.76788 30.4043 4.75445 30.6404 4.72759C30.8765 4.69177 31.0732 4.63805 31.2306 4.56642C31.4841 4.46793 31.6808 4.30228 31.8207 4.06949C31.9693 3.83669 32.0437 3.55912 32.0437 3.23679C32.0437 2.85177 31.9737 2.55182 31.8338 2.33693C31.7027 2.12204 31.5235 1.96535 31.2961 1.86686C31.0776 1.76837 30.8284 1.71017 30.5486 1.69226C30.2688 1.6654 29.9847 1.65197 29.6962 1.65197H28.8437V4.76788H29.788Z" fill="#ffffff"/>
      <path d="M36.0632 1.65197H34.1222V0.174599H39.5123V1.65197H37.5844V10.0998H36.0632V1.65197Z" fill="#ffffff"/>
      <path d="M40.1837 5.14394C40.1837 4.41868 40.3148 3.74715 40.5771 3.12934C40.8481 2.50258 41.211 1.9564 41.6656 1.4908C42.129 1.02521 42.6754 0.662579 43.3049 0.402919C43.9344 0.134306 44.6076 0 45.3246 0C46.0153 0 46.6622 0.134306 47.2655 0.402919C47.8775 0.671532 48.4065 1.03864 48.8524 1.50423C49.307 1.96983 49.6655 2.51601 49.9278 3.14277C50.19 3.76058 50.3212 4.42316 50.3212 5.13051C50.3212 5.84681 50.19 6.51834 49.9278 7.1451C49.6655 7.77187 49.307 8.31805 48.8524 8.78364C48.4065 9.24028 47.8775 9.60291 47.2655 9.87152C46.6535 10.1401 45.9934 10.2744 45.2852 10.2744C44.577 10.2744 43.9126 10.1401 43.2918 9.87152C42.6711 9.60291 42.129 9.24028 41.6656 8.78364C41.211 8.31805 40.8481 7.77187 40.5771 7.1451C40.3148 6.51834 40.1837 5.85128 40.1837 5.14394ZM41.7181 5.13051C41.7181 5.64087 41.8099 6.1199 41.9935 6.56759C42.1858 7.00632 42.4394 7.39133 42.7541 7.72262C43.0776 8.05391 43.4536 8.31357 43.882 8.5016C44.3191 8.68963 44.7869 8.78364 45.2852 8.78364C45.7748 8.78364 46.2338 8.68963 46.6622 8.5016C47.0906 8.31357 47.4622 8.05839 47.777 7.73605C48.0917 7.41372 48.3365 7.03318 48.5114 6.59445C48.695 6.14676 48.7868 5.66773 48.7868 5.15737C48.7868 4.63805 48.695 4.15455 48.5114 3.70686C48.3278 3.25917 48.0742 2.87416 47.7507 2.55182C47.436 2.22053 47.06 1.96087 46.6229 1.77285C46.1857 1.58482 45.7136 1.4908 45.2065 1.4908C44.7257 1.4908 44.271 1.58929 43.8426 1.78628C43.423 1.9743 43.0557 2.23396 42.741 2.56525C42.4263 2.88759 42.1771 3.2726 41.9935 3.72029C41.8099 4.15902 41.7181 4.6291 41.7181 5.13051Z" fill="#ffffff"/>
      <path d="M51.8553 0.174599H53.652L58.1371 7.73605V0.174599H59.6584V10.0998H57.9929L53.3766 2.37722V10.0998H51.8553V0.174599Z" fill="#ffffff"/>
      <path d="M61.6466 0.174599H63.1679V8.62247H66.4727V10.0998H61.6466V0.174599Z" fill="#ffffff"/>
      <path d="M70.0716 6.55416L66.8192 0.174599H68.4717L70.8323 5.07678L73.1929 0.174599H74.8453L71.5929 6.55416V10.0998H70.0716V6.55416Z" fill="#ffffff"/>
    </g>
  </g>
</svg>
